<svg width="10" height="14" viewBox="0 0 10 14" fill="none" xmlns="http://www.w3.org/2000/svg">
<path d="M5.04565 3.06813C4.059 3.06813 3.25592 3.87121 3.25592 4.85786C3.25592 5.84451 4.059 6.64758 5.04565 6.64758C6.0323 6.64758 6.83537 5.84451 6.83537 4.85786C6.83537 3.87121 6.0323 3.06813 5.04565 3.06813ZM5.04565 6.13623C4.34075 6.13623 3.76727 5.56275 3.76727 4.85786C3.76727 4.15296 4.34075 3.57948 5.04565 3.57948C5.75054 3.57948 6.32402 4.15296 6.32402 4.85786C6.32402 5.56275 5.75054 6.13623 5.04565 6.13623Z" fill="black"/>
<path d="M8.46738 1.43613C7.54132 0.510072 6.30999 0 5.00042 0C3.6906 0 2.45953 0.510072 1.53347 1.43613C-0.18032 3.14966 -0.393297 6.37372 1.07223 8.32708L5.00042 14L8.92274 8.33501C10.3941 6.37372 10.1812 3.14966 8.46738 1.43613ZM8.50803 8.03612L5.00042 13.1016L1.48719 8.0282C0.157939 6.25586 0.348416 3.34423 1.89525 1.79765C2.72466 0.968242 3.82739 0.51135 5.00042 0.51135C6.17346 0.51135 7.27619 0.968242 8.10585 1.79765C9.65269 3.34423 9.84317 6.25586 8.50803 8.03612Z" fill="black"/>
</svg>
