<svg width="15" height="15" viewBox="0 0 15 15" fill="none" xmlns="http://www.w3.org/2000/svg">
<path fill-rule="evenodd" clip-rule="evenodd" d="M10.2843 1.95653C10.2843 2.31669 10.5763 2.6087 10.9365 2.6087L14.3478 2.6087C14.708 2.6087 15 2.31669 15 1.95653C15 1.59636 14.708 1.30435 14.3478 1.30435L10.9365 1.30435C10.5763 1.30435 10.2843 1.59636 10.2843 1.95653ZM4.68311 1.95653C4.68311 1.59636 4.39093 1.30435 4.03093 1.30435L0.652182 1.30435C0.292019 1.30435 7.62939e-06 1.59636 7.62939e-06 1.95653C7.62939e-06 2.31669 0.292019 2.6087 0.652182 2.6087H4.03093C4.39093 2.6087 4.68311 2.31669 4.68311 1.95653ZM7.0588 7.5C7.0588 7.86016 7.35082 8.15217 7.71098 8.15217H14.3478C14.708 8.15217 15 7.86016 15 7.5C15 7.13983 14.708 6.84782 14.3478 6.84782L7.71098 6.84782C7.35082 6.84782 7.0588 7.13983 7.0588 7.5ZM1.67935 7.50001C1.67935 7.13985 1.38734 6.84784 1.02718 6.84784H0.652178C0.292015 6.84784 3.8147e-06 7.13985 3.8147e-06 7.50001C3.8147e-06 7.86018 0.292015 8.15219 0.652178 8.15219H1.02718C1.38734 8.15219 1.67935 7.86018 1.67935 7.50001ZM10.3317 13.6956C10.6945 13.6956 10.9896 13.4079 10.9896 13.0541C10.9896 12.7002 10.6945 12.4125 10.3317 12.4125C9.96897 12.4125 9.67386 12.7002 9.67386 13.0541C9.67386 13.4079 9.96897 13.6956 10.3317 13.6956ZM10.3317 15C9.24979 15 8.36952 14.1271 8.36952 13.0541C8.36952 11.9811 9.24979 11.1082 10.3317 11.1082C11.4137 11.1082 12.294 11.9811 12.294 13.0541C12.294 14.1271 11.4137 15 10.3317 15ZM4.29228 8.14158C4.65506 8.14158 4.95016 7.85381 4.95016 7.5C4.95016 7.1462 4.65506 6.85843 4.29228 6.85843C3.92951 6.85843 3.6344 7.1462 3.6344 7.5C3.6344 7.85381 3.92951 8.14158 4.29228 8.14158ZM4.29229 9.44592C3.21033 9.44592 2.33006 8.57299 2.33006 7.5C2.33006 6.42701 3.21033 5.55408 4.29229 5.55408C5.37424 5.55408 6.25452 6.42701 6.25452 7.5C6.25452 8.57299 5.37424 9.44592 4.29229 9.44592ZM7.49999 2.5875C7.8626 2.5875 8.15788 2.29973 8.15788 1.94593C8.15788 1.59212 7.8626 1.30435 7.49999 1.30435C7.13722 1.30435 6.84211 1.59212 6.84211 1.94593C6.84211 2.29973 7.13722 2.5875 7.49999 2.5875ZM7.5 3.89185C6.41804 3.89185 5.53777 3.01891 5.53777 1.94592C5.53777 0.872935 6.41804 0 7.5 0C8.58195 0 9.46223 0.872935 9.46223 1.94592C9.46223 3.01891 8.58195 3.89185 7.5 3.89185ZM13.1376 13.0435C13.1376 13.4036 13.4296 13.6956 13.7897 13.6956H14.3478C14.708 13.6956 15 13.4036 15 13.0435C15 12.6833 14.708 12.3913 14.3478 12.3913H13.7897C13.4296 12.3913 13.1376 12.6833 13.1376 13.0435ZM7.03581 13.6956H0.652165C0.292002 13.6956 -8.58307e-06 13.4036 -8.58307e-06 13.0435C-8.58307e-06 12.6833 0.292002 12.3913 0.652165 12.3913H7.03581C7.39597 12.3913 7.68798 12.6833 7.68798 13.0435C7.68798 13.4036 7.39597 13.6956 7.03581 13.6956Z" fill="#C4C4C4"/>
</svg>
